Coordinates
version=1
nRows=19
nColumns=36
inDegrees=yes

Units are S.I. units (second, meters, Newtons, ...)
If the header above contains a line with 'inDegrees', this indicates whether rotational values are in degrees (yes) or radians (no).

endheader
time	pelvis_tilt	pelvis_list	pelvis_rotation	pelvis_tx	pelvis_ty	pelvis_tz	hip_flexion_r	hip_adduction_r	hip_rotation_r	knee_angle_r	knee_angle_r_beta	ankle_angle_r	subtalar_angle_r	mtp_angle_r	hip_flexion_l	hip_adduction_l	hip_rotation_l	knee_angle_l	knee_angle_l_beta	ankle_angle_l	subtalar_angle_l	mtp_angle_l	lumbar_extension	lumbar_bending	lumbar_rotation	arm_flex_r	arm_add_r	arm_rot_r	elbow_flex_r	pro_sup_r	arm_flex_l	arm_add_l	arm_rot_l	elbow_flex_l	pro_sup_l
      7.76666670	     -8.27010507	      2.94539556	      2.07630970	     -0.04898586	      1.19940596	     -0.07343067	      2.78311099	     -1.99824188	     -1.13097726	      1.09629029	      0.01913388	      8.86538520	      1.37920695	     -7.49999987	      4.88080046	      0.30408685	     -2.70526469	      6.68442665	      0.11666525	      5.86435909	     -2.04065773	     -7.49999987	      4.66346995	      3.10010096	     15.03645783	    -31.90111615	    -51.33901684	     33.25034734	    131.46773121	    105.50039567	     40.57254422	    -46.43525354	     96.91412032	    128.42182319	    109.53510079
      7.78333330	     -8.23434977	      2.92129351	      2.06828112	     -0.05240249	      1.19519410	     -0.07400269	      2.79261630	     -1.99477338	     -1.13208467	      1.09119953	      0.01904502	      8.86881858	      1.37824309	     -7.49999987	      4.89957335	      0.32965033	     -2.70595549	      6.67934617	      0.11657658	      5.86828112	     -2.04109172	     -7.49999987	      4.66946603	      3.09963671	     15.03769233	    -31.90391178	    -51.33792430	     33.25174082	    131.46865028	    105.50061165	     40.57117041	    -46.43937230	     96.91588422	    128.42352386	    109.53417961
      7.80000000	     -8.32212729	      2.95026620	      2.04083331	     -0.05197602	      1.19843456	     -0.07355940	      2.96080113	     -2.04590731	     -1.12250073	      1.07430325	      0.01875013	      9.22057758	      1.59106905	     -7.49999987	      5.13005729	      0.38541598	     -2.56762132	      6.84805444	      0.11952110	      6.12979985	     -2.20171767	     -7.49999987	      4.70645272	      3.06838083	     15.30303282	    -32.81789802	    -51.18420100	     32.22668207	    131.70443109	    106.40903667	     41.29402864	    -46.27835855	     97.65066966	    128.64804738	    109.04629320
      7.81666670	     -8.33614447	      2.94335233	      1.91948539	     -0.05311348	      1.19884216	     -0.07381013	      3.06412863	     -2.04877475	     -0.94962979	      1.08788870	      0.01898724	      9.32526596	      1.58255109	     -7.49999987	      5.25589222	      0.37388991	     -2.66410389	      6.87335988	      0.11996276	      6.14571751	     -2.18974395	     -7.49999987	      4.64275720	      3.08642855	     15.43121312	    -33.13672545	    -51.05062326	     31.81147464	    131.66704287	    106.24320024	     41.42897610	    -46.19203379	     97.87972877	    128.65775854	    109.05807318
      7.83333330	     -8.31310855	      2.94848924	      1.87635592	     -0.05201324	      1.19742510	     -0.07405173	      3.10888421	     -2.04545364	     -0.89242845	      1.11152915	      0.01939984	      9.47129201	      1.66438109	     -7.49999987	      5.33394908	      0.37318465	     -2.58526488	      7.03139641	      0.12272102	      6.21477472	     -2.29133943	     -7.49999987	      4.59997232	      3.05738509	     15.22602122	    -32.72058569	    -51.20621701	     31.95573518	    131.66923122	    106.10771664	     41.11502313	    -46.36982295	     97.59534436	    128.77693402	    109.03963912
      7.85000000	     -8.31684198	      2.89693942	      1.86167988	     -0.05302890	      1.19628975	     -0.07427474	      3.19009416	     -1.99812087	     -0.95937408	      1.15108420	      0.02009021	      9.56732709	      1.78737768	     -7.49999987	      5.43391467	      0.31088000	     -2.62984884	      7.15658499	      0.12490597	      6.43392944	     -2.20458323	     -7.49999987	      4.56352463	      3.08724242	     15.45907972	    -33.22878831	    -51.06936092	     31.40830015	    131.72246171	    106.60276504	     41.49556226	    -46.19375586	     97.96607412	    128.83901534	    108.75804285
      7.86666670	     -8.29144765	      2.87129087	      1.88283185	     -0.05302090	      1.19612828	     -0.07432332	      3.18696847	     -1.97882278	     -0.84996466	      1.20224930	      0.02098321	      9.51459677	      1.68501196	     -7.49999987	      5.50033062	      0.29257645	     -2.52667237	      7.28582229	      0.12716159	      6.51642421	     -2.35785145	     -7.49999987	      4.50265019	      3.09520896	     15.52450141	    -33.51607267	    -50.99034470	     31.04578803	    131.81740409	    106.04928988	     41.55730402	    -46.18683132	     97.98938666	    128.87862441	    108.75576909
      7.88333330	     -8.29494637	      2.85656486	      1.86005946	     -0.05224042	      1.19625412	     -0.07449710	      3.22266541	     -1.97715488	     -0.86327081	      1.24850428	      0.02179051	      9.52738473	      1.69720704	     -7.49999987	      5.53632047	      0.27411536	     -2.56272820	      7.33181448	      0.12796430	      6.64940012	     -2.34522500	     -7.49999987	      4.50285937	      3.09683108	     15.57294361	    -33.57661473	    -51.00666874	     30.96551513	    131.89616081	    106.69802105	     41.51185898	    -46.27250411	     97.98416636	    129.02431797	    108.58706580
      7.90000000	     -8.27035860	      2.82273546	      1.86501449	     -0.05246032	      1.19419020	     -0.07489103	      3.21900862	     -1.95884225	     -0.76357163	      1.27871506	      0.02231779	      9.65598856	      1.58806031	     -7.49999987	      5.54446810	      0.24416931	     -2.55434179	      7.40590555	      0.12925744	      6.85704350	     -2.34137976	     -7.49999987	      4.51364495	      3.13611108	     15.47154554	    -33.41394594	    -51.19659598	     31.22186879	    132.06602664	    105.87893705	     41.19116983	    -46.49695605	     97.60518548	    129.22143250	    109.29537177
      7.91666670	     -8.31251259	      2.81404912	      1.91765459	     -0.05369122	      1.19340602	     -0.07577512	      3.29753223	     -1.98844631	     -0.70040732	      1.36901356	      0.02389379	      9.81092048	      1.50359891	     -7.49999987	      5.68277251	      0.25942204	     -2.50463233	      7.55605024	      0.13187796	      7.07450924	     -2.42343500	     -7.49999987	      4.62313577	      3.12509900	     15.58699101	    -33.69310583	    -51.17192652	     31.04651831	    132.22116049	    106.08864072	     41.67034884	    -46.40914177	     97.97167720	    129.30732406	    109.30138474
      7.93333330	     -8.31800793	      2.82392398	      1.92905039	     -0.05303579	      1.19475769	     -0.07501627	      3.33286633	     -2.02014997	     -0.58500686	      1.41222230	      0.02464793	     10.21712121	      1.59940467	     -7.49999987	      5.70921501	      0.27131495	     -2.45998631	      7.58556056	      0.13239301	      7.30540729	     -2.39492183	     -7.49999987	      4.65554100	      3.10165099	     15.77795236	    -34.25575943	    -51.01191554	     30.62920840	    132.33339004	    106.42586393	     42.14643284	    -46.11675172	     98.28115179	    129.27867698	    108.95390972
      7.95000000	     -8.36240251	      2.83000052	      1.99925606	     -0.05343988	      1.19337179	     -0.07487540	      3.39956676	     -2.03895571	     -0.57433175	      1.45368322	      0.02537156	     10.44880970	      1.64365498	     -7.49999987	      5.83791983	      0.26588277	     -2.39987402	      7.65791992	      0.13365592	      7.54162913	     -2.17321144	     -7.49999987	      5.00841260	      2.98597007	     15.42233887	    -32.84609934	    -51.40152820	     32.52365032	    132.13900809	    103.25025387	     42.92062445	    -46.04559029	     99.27325598	    129.23331018	    108.40403863
      7.96666670	     -8.29086542	      2.83488881	      1.93135938	     -0.05416685	      1.19546297	     -0.07443308	      3.35525710	     -2.03213937	     -0.30890202	      1.49512714	      0.02609489	     10.70759375	      1.68417251	     -7.49999987	      5.72891763	      0.26889044	     -2.36769077	      7.57029287	      0.13212654	      7.52977215	     -2.36882103	     -7.49999987	      4.70209523	      3.03108018	     15.99136002	    -34.61494112	    -50.63926200	     30.53222342	    132.46464841	    106.70857431	     42.95014053	    -45.72484453	     98.77578295	    129.02015937	    108.70192998
      7.98333330	     -8.30735323	      2.85681473	      1.91527750	     -0.05265907	      1.19344010	     -0.07464626	      3.32849341	     -2.05835851	     -0.32430504	      1.43545921	      0.02505349	     10.76259668	      1.76268409	     -7.49999987	      5.77800986	      0.26912812	     -2.45284462	      7.65854060	      0.13366675	      7.58397278	     -2.30083885	     -7.49999987	      4.85284388	      2.96880402	     16.11337892	    -34.71787096	    -50.69794514	     30.60274020	    132.40678559	    106.30545520	     43.21342460	    -45.58692194	     99.00202783	    129.14204857	    108.65203147
      8.00000000	     -8.32676923	      2.88575343	      1.82232814	     -0.05401589	      1.19629247	     -0.07521440	      3.33130105	     -2.11468387	     -0.32275639	      1.60706284	      0.02804854	     10.71994703	      1.69031342	     -7.49999987	      5.81819232	      0.29201000	     -2.51706028	      7.76878258	      0.13559083	      7.54160282	     -2.36537304	     -7.49999987	      4.89755534	      2.92078381	     16.24818074	    -34.53033924	    -50.75133685	     30.67897433	    132.36022934	    106.63006495	     43.35656691	    -45.50232962	     99.20037638	    129.17658860	    108.48380700
      8.01666670	     -8.31798212	      2.93262754	      1.77688712	     -0.05234589	      1.19503316	     -0.07544424	      3.25598861	     -2.17834848	     -0.32798063	      1.75467478	      0.03062485	     10.70986536	      1.55537577	     -7.49999987	      5.79576145	      0.34516417	     -2.59780450	      7.91627549	      0.13816507	      7.61225490	     -2.35836594	     -7.49999987	      4.89237919	      2.83934165	     16.24035987	    -34.30859944	    -50.79172386	     30.86774019	    132.29112256	    106.82160141	     43.27826732	    -45.53354663	     99.24370938	    129.29500016	    108.34618122
      8.03333330	     -8.33902336	      2.94240867	      1.70744266	     -0.05191955	      1.19516256	     -0.07550385	      3.23274418	     -2.21307550	     -0.40199213	      1.87208173	      0.03267399	     10.64163386	      1.47700117	     -7.49999987	      5.77820914	      0.36653093	     -2.58890930	      7.95433124	      0.13882927	      7.65248205	     -2.32820771	     -7.49999987	      4.95120014	      2.81966479	     16.21498049	    -34.25973646	    -50.81952224	     30.87992770	    132.28175340	    106.23789000	     43.12398412	    -45.63923854	     99.17025536	    129.39634511	    108.66417658
      8.05000000	     -8.37580504	      2.91984699	      1.64490745	     -0.05253480	      1.19642001	     -0.07537285	      3.22710047	     -2.22113512	     -0.37697575	      1.81620677	      0.03169879	     10.43350663	      1.28054427	     -7.49999987	      5.74425768	      0.35786487	     -2.71248155	      7.90777430	      0.13801670	      7.68378894	     -2.27407888	     -7.49999987	      5.03940038	      2.83746120	     15.85294951	    -33.33608542	    -51.15154399	     31.73674255	    132.15880332	    105.86926748	     42.34084238	    -45.98936459	     98.62890488	    129.52962020	    109.03296389
      8.06666670	     -8.38255621	      2.92558250	      1.53568902	     -0.05385638	      1.19649258	     -0.07565084	      3.19986017	     -2.26934459	     -0.42620617	      1.73159321	      0.03022200	     10.21380675	      1.26584229	     -7.49999987	      5.70673125	      0.39116712	     -2.79558370	      7.82864310	      0.13663560	      7.57670383	     -2.36745110	     -7.49999987	      5.07373251	      2.83400944	     15.92972558	    -33.15182409	    -51.23759000	     31.82911094	    132.09616275	    106.07467829	     42.25741956	    -46.01090918	     98.71447663	    129.57059274	    109.03893081
